<?xml version="1.0" ?><svg style="enable-background:new 0 0 48 48;" version="1.1" viewBox="0 0 48 48" xml:space="preserve" xmlns="http://www.w3.org/2000/svg" xmlns:xlink="http://www.w3.org/1999/xlink"><style type="text/css">
	.st0{display:none;}
	.st1{fill:none;stroke:#303030;stroke-width:0.7;stroke-linecap:round;stroke-linejoin:round;stroke-miterlimit:10;}
	.st2{fill:#303030;}
</style><g class="st0" id="Padding__x26__Artboard"/><g id="Icons"><g><polyline class="st1" points="21.18,31.7 16.71,33.4 18.76,30.95   "/><path class="st1" d="M21.18,31.7c0.9,0.18,1.85,0.28,2.82,0.28c6.13,0,11.1-3.89,11.1-8.69S30.13,14.6,24,14.6    s-11.1,3.89-11.1,8.69c0,3.32,2.37,6.2,5.86,7.66"/><path class="st1" d="M28.27072,29.16196c0.1435-0.05561,0.28456-0.11448,0.42303-0.17651    c0.32643-0.14621,0.63844-0.3099,0.93397-0.48944c1.887-1.14641,3.10147-2.93906,3.10147-4.95408"/><path class="st1" d="M26.6095,29.63421c0.15552-0.02939,0.30926-0.06234,0.46109-0.09872"/></g></g></svg>